# xmcd
#
# Track frame offsets: 
#        150
#        11607
#        21195
#        31508
#        41201
#        50209
#        60482
#        72691
#        82216
#        93035
#        103042
#        113374
#
# Disc length: 1672 seconds
#
# Revision: 0
# Processed by: cddbd v1.5.2PL0 Copyright (c) Steve Scherf et al.
# Submitted via: ExactAudioCopy v0.99pb5
#
DISCID=9806860c
DTITLE=Waylon Jennings - Waylon Sings Ol' Harlan
DYEAR=1967
DGENRE=Country
TTITLE0=She Called Me Baby
TTITLE1=Sunset And Vine
TTITLE2=Woman, Let Me Sing You A Song
TTITLE3=The Everglades
TTITLE4=She's Gone, Gone, Gone
TTITLE5=Busted
TTITLE6=Beatiful Annabel Lee
TTITLE7=Heartaches By The Number
TTITLE8=Tiger By The Tail
TTITLE9=Heartaches For A Dime
TTITLE10=Foolin' 'Round
TTITLE11=In This Very Same Room
EXTD=
EXTT0=
EXTT1=
EXTT2=
EXTT3=
EXTT4=
EXTT5=
EXTT6=
EXTT7=
EXTT8=
EXTT9=
EXTT10=
EXTT11=
PLAYORDER=
